<svg viewBox="0 0 64 64" xmlns="http://www.w3.org/2000/svg">
  <path class="palette-1" fill-rule="evenodd" d="M19.859754 10.140407c1.640628-.913113 3.394766-1.646884 5.235915-2.174816l.19404-3.48816C25.42945 1.965374 27.507193 0 30.02313 0h3.953577c2.515936 0 4.59368 1.965374 4.73342 4.477428l.19404 3.488117c1.94685.558226 3.79641 1.346604 5.517355 2.333805l2.356007-2.107698c1.875102-1.677478 4.734017-1.59802 6.513054.181016l2.7956 2.7956c1.779038 1.779038 1.858495 4.637953.181016 6.513056l-2.23352 2.49665c.832635 1.548597 1.50678 3.195068 2.00073 4.91771l3.488158.19404C62.034628 25.429464 64 27.507207 64 30.023146v3.953577c0 2.515938-1.965374 4.59368-4.477428 4.733423l-3.48812.194038c-.52436 1.82873-1.25179 3.571622-2.156328 5.202706l2.389173 2.670643c1.677478 1.875103 1.59802 4.734018-.181016 6.513055l-2.7956 2.7956c-1.779034 1.779038-4.63795 1.858495-6.513052.181016l-2.670614-2.389147c-1.631124.90457-3.37406 1.632026-5.20284 2.156398l-.19404 3.488117C38.57039 62.034626 36.492647 64 33.97671 64h-3.953577c-2.51594 0-4.593682-1.965374-4.733423-4.477428l-.19404-3.488163c-1.722637-.49395-3.369103-1.168095-4.917695-2.000727l-2.49665 2.23352c-1.875104 1.677478-4.73402 1.59802-6.513056-.181016l-2.795604-2.795602c-1.779036-1.779035-1.858493-4.63795-.181016-6.513055l2.1077-2.356006c-.9872-1.72094-1.775576-3.570498-2.3338-5.517342l-3.488123-.194038C1.965374 38.570404 0 36.49266 0 33.976724v-3.953578c0-2.515938 1.965374-4.59368 4.477428-4.733422l3.48816-.19404c.527944-1.8412 1.26174-3.595384 2.174886-5.23605l-1.94873-2.17831c-1.677477-1.875103-1.59802-4.734018.181016-6.513055l2.795602-2.795604c1.779036-1.779037 4.637952-1.858494 6.513054-.181016l2.178338 1.948756zM32 45c7.179702 0 13-5.820298 13-13s-5.820298-13-13-13-13 5.820298-13 13 5.820298 13 13 13z"/>
</svg>