<svg version="1" xmlns="http://www.w3.org/2000/svg" width="933.333" height="933.333" viewBox="0 0 700.000000 700.000000"><path d="M339.8.5c-.2.2-3.4.6-7.3.9-5.9.6-18.7 2.5-26 4-22.9 4.6-49.1 14.5-71.5 27.2-10.4 5.9-29.3 18.6-33.2 22.4-.9.8-3.5 3.1-5.9 5-6.8 5.5-23.5 22.7-30.6 31.5-14.9 18.5-31.3 46.7-38.9 67-7 18.6-13.3 44.4-15.1 61.5-1 9.5-1 46.6 0 54.5 9.8 77.8 50.8 142.6 115.7 183.1 7.9 5 24 13.6 24 12.9 0-.3-2-2.9-4.4-5.9-18.4-22.6-36.2-58-44.4-88.6-3.2-11.7-3.5-13.2-5.2-23-.6-3-1.2-6.4-1.4-7.6-2.1-10.5-2.8-48.4-1.2-63.4.6-6.1 2.5-17.1 5.1-30 .2-.8 1.7-6.5 3.5-12.5 21.2-72.8 73.8-132.4 143.1-161.8 9.7-4.2 32.7-11.8 38.9-13 1.4-.3 5.7-1.2 9.5-2 3.9-.9 9.7-1.9 13-2.2 3.3-.4 6.3-.9 6.7-1.1 2.6-1.6 36.8-2.2 52.5-1 16.6 1.2 41.2 6.3 58 11.9 7 2.3 7.1 2.3 5.6.3-.9-1.2-4.3-4.4-7.6-7.1-3.2-2.8-6.4-5.5-7.1-6.1-.6-.6-5-4-9.6-7.5-20.9-15.8-45.6-28.8-71.6-37.5-8-2.6-26.3-7.4-30.9-8-1.6-.2-4.1-.6-5.5-.9-1.4-.3-4.5-.8-7-1.1-2.5-.3-5.6-.7-7-1-2.6-.6-43.7-1.4-44.2-.9z"/><path d="M433.9 110.4c-.2.2-3.7.7-7.8 1-21.1 2-48.1 8.9-68.7 17.6-9.2 3.9-24.2 11.3-28.9 14.3-15.6 9.6-27.2 17.7-32.1 22.2-.7.5-3.5 3-6.4 5.5-19.2 16.3-39.8 41.5-52 63.5-6.9 12.4-8.9 16.5-8.1 16.5.5 0 1.1-.3 1.3-.8.8-1.9 22-16.7 32.8-22.9 28.4-16.2 61.7-27.8 92-31.9 22.8-3 62.6-2.5 74.8 1 .9.3 3.8.7 6.4 1.1 2.7.3 9.2 1.7 14.5 3.1 94.1 24.2 164.7 97.2 185.1 191.4 1.2 5.2 2.4 11.7 2.7 14.3.4 2.7.8 5.9 1.1 7 .9 4.7 1.8 20.8 1.8 32.2 0 16.4-1.4 32.6-3.9 44.5-.3 1.4-.8 4.1-1.1 6-.3 1.9-.9 4.6-1.4 6-.5 1.4-1.4 5-2.1 8-.7 3-2.5 9.3-4.1 14l-2.8 8.5 5.8-6c19-19.6 38.3-49.7 49.3-77 5-12.5 11.4-34.3 13.2-45 .3-1.7 1-5.4 1.6-8.3 1.7-8.6 2.6-21.7 2.6-39.2-.1-14.7-1.1-32.5-2-34-.1-.3-.6-2.8-1-5.5-1.9-14.6-8.9-39.1-15.9-55.7-30-71.6-92-125.1-167.1-144.2-21.8-5.5-37.5-7.4-61.6-7.5-9.7 0-17.8.1-18 .3zM66.4 174.3c-11.2 11.9-25 30.5-33.2 44.6-9 15.4-22.6 48.3-24.6 59.6-.2 1.1-.9 3.8-1.5 6-1.3 4.9-4.2 19.8-4.7 24-.2 1.6-.7 6.1-1.1 10C-.4 333.8.5 365.2 3 380c.5 3 1.2 7.1 1.5 9 .3 1.9 1 5.1 1.5 7 .5 1.9 1.1 4.6 1.4 6 1.2 6.5 8.1 27 12.6 37.6 19.6 45.7 49.6 81.7 91.3 109.4 31.5 21 71.2 35.6 107.7 39.5 11.7 1.3 13.9 1.4 27 1.4 18 .1 27.2-.7 42.9-3.4 15.3-2.7 25.2-5.2 38.8-9.9 60.6-21 109.3-63 139.4-120.4 2.1-3.9 3.5-7.2 3.2-7.2-.3 0-2.6 1.7-5.2 3.8-30.3 25.1-79.4 46.2-120.1 51.7-20.7 2.7-56.8 2.7-71.1 0-1.3-.3-4.1-.7-6.4-1-2.2-.4-6.8-1.3-10.1-2-3.4-.8-7.3-1.6-8.5-1.9-6.6-1.3-24.3-6.9-30.4-9.6-1.1-.5-5.3-2.3-9.4-4-8.8-3.6-29.5-14.3-31.1-16-.3-.3-2.5-1.8-5-3.2-4.7-2.7-19.3-13.3-24.4-17.8-29.8-25.6-50.7-52.3-65.9-84.2-7.6-15.7-15.9-38.9-18.1-50.2-.2-1.1-.9-4.4-1.6-7.1-5.5-23.8-7.1-62.6-3.4-86 2.6-16.5 6.5-33.4 10.3-44.8 1.6-4.8 2.8-8.7 2.7-8.7-.2 0-3 2.8-6.2 6.3z"/><path d="M449 229.9c0 .5.3 1.1.8 1.3 1.1.5 14.2 18.4 18.8 25.8 9.2 14.7 19.5 36.5 24.7 52.1 2.8 8.5 6.7 21.9 7.3 25.8.3 1.4.9 4.2 1.4 6.1.5 1.9 1.2 5.5 1.5 8 .3 2.5.8 5.2 1 6 2 7.5 2.7 47.8 1.2 62-8.1 74.2-49 141.8-110.6 183-53.7 35.9-119.5 49.8-183.1 38.9-6.3-1.1-12.2-2.2-13-2.5-.8-.3-2.6-.8-3.8-1-4.1-.8-12.4-3.2-20-5.7-7-2.4-7.2-2.4-5.5-.4 9.4 10.7 37.9 31.6 56.8 41.6 16.6 8.9 41.2 18.2 56.5 21.6 14.2 3.2 20.8 4.5 25.6 5.1 3.3.3 6.8.8 7.9 1.1 1.1.2 10.3.6 20.5.8 16.6.3 30.7-.4 39.8-1.9 1.8-.4 4.6-.8 6.2-1.1 8-1.3 10-1.7 16-3.1 31.1-7.3 61.8-21.2 88-40 9.8-7 10.5-7.6 20.5-16.6 33.6-30.4 56.5-65.4 70.6-108.2 4.2-12.7 9.3-36.4 10.5-48.1.4-3.9.8-8.4 1-10 .5-4.6.5-31.6 0-35-.3-1.7-.7-5.9-1-9.5-.3-3.6-.8-7.6-1.1-9-.2-1.3-.7-4.2-1.1-6.5-.3-2.2-1-6-1.6-8.5-.5-2.5-1.2-5.6-1.4-7-.7-3.6-5.2-18.4-7.9-26-18.9-52.5-54.9-97-102.5-126.6-10-6.3-24-13.5-24-12.5z"/></svg>