<svg viewBox="0 0 64 64" 
     xmlns="http://www.w3.org/2000/svg">
  <path class="palette-1" fill-rule="evenodd"
        d="M14.01835 41.238233l9.754105 11.53662c-.79242.844772-1.68563 1.635723-2.655875 2.33747-5.07696 3.672007-10.239338 3.938985-12.93745.242085-2.698114-3.6969-.584488-9.569024 4.49247-13.24103.44063-.318694.890642-.610408 1.34675-.875145zM31.799125 45.3751l-9.76258-9.911592c1.581636-2.301368 3.659647-4.508472 4.454912-7.760993 1.870046-7.64823 2.566747-8.067944 4.918272-10.93705C38.02303 8.919555 47.734 2.695508 54.00715 7.93559c6.27315 5.24008 1.915454 15.387452-5.964995 24.736687-4.84283 5.745456-10.94116 10.518236-16.24303 12.702823z"/>
</svg>