<svg viewBox="0 0 64 64" 
     xmlns="http://www.w3.org/2000/svg">
  <g>
    <path class="palette-1" fill-rule="evenodd"
          d="M27.466376 47.53291C18.604593 44.438528 12 32.797255 12 23.14198 12 11.899614 20.954305 6 32 6s20 5.899615 20 17.14198c0 9.383665-6.238235 20.643165-14.723966 24.109733-.247692.204873-.327577.45163-.239654.74027.38928 1.277953 1.506465 2.744714 3.35156 4.400282 2.24325 2.012824 3.980005 3.28808 5.210266 3.82577.594562.261358.891843.531006.891843.808945-.001274.4157-.235787.560614-.795646.73298-.55986.172363-7.973375 1.105842-12.763938-2.414832-3.04223-2.23579-4.552376-4.709923-5.094505-7.334708-.044553-.215715-.16775-.374885-.369585-.47751zm4.803894-6.96759c6.346522 0 12.432433-10.186215 12.432433-16.97154 0-7.32233-4.571944-10.362008-12.432433-10.362008-7.86049 0-12.432432 3.576683-12.432432 10.362008 0 6.785325 6.08591 16.97154 12.432432 16.97154z"/>
  </g>
</svg>