<svg viewBox="0 0 1237 306" xmlns="http://www.w3.org/2000/svg">
  <defs>
    <linearGradient x1="100%" y1="67.888709%" x2="15.327645%" y2="0%" id="a">
      <stop class="current-start" offset="0%"/>
      <stop class="current-stop" offset="100%"/>
    </linearGradient>
    <linearGradient x1="67.825284%" y1="0%" x2="0%" y2="86.431967%" id="b">
      <stop class="current-start" offset="0%"/>
      <stop class="current-stop" offset="100%"/>
    </linearGradient>
    <linearGradient x1="6.760044%" y1="24.170919%" x2="86.218203%" y2="96.322874%" id="c">
      <stop class="current-start" offset="0%"/>
      <stop class="current-stop" offset="100%"/>
    </linearGradient>
    <linearGradient x1="34.140765%" y1="100%" x2="96.236473%" y2="12.59711%" id="d">
      <stop class="current-start" offset="0%"/>
      <stop class="current-stop" offset="100%"/>
    </linearGradient>
  </defs>
  <g id="xivcurrents" fill-rule="evenodd">
    <g class="current">
      <path class="palette-1" fill="url(#a)" d="M205.999987 195.864795c-13.09632 27.787288-37.872536 49.843206-69.85648 58.419503-57.689597 15.469108-116.98259-18.77357-132.434605-76.48316C-6.684086 138.98581 5.40312 99.44057 31.985414 73c-7.732152 20.72295-9.320024 43.966053-3.163898 66.957715C44.55968 198.736 104.95069 233.6128 163.708613 217.857228c16.06445-4.307583 30.34366-11.95386 42.291387-21.992444l-.000013.00001z" />
      <path class="palette-1" fill="url(#b)" d="M195.88991 100.000013c27.78301 13.090493 49.832803 37.861473 58.402475 69.84243 15.45716 57.684214-18.794565 116.981183-76.50337 132.44349C138.974215 312.68584 99.43382 300.60665 73 274.0305c20.720146 7.727892 43.96145 9.31129 66.952798 3.151063 58.777485-15.748644 93.6635-76.143705 77.920098-134.896144-4.304256-16.06296-11.947328-30.34011-21.982998-42.28542l.00001.00001z" />
      <path class="palette-1" fill="url(#c)" d="M100.000013 110.135205c13.09632-27.787288 37.872536-49.843206 69.85648-58.419503 57.689597-15.469107 116.98259 18.77357 132.434605 76.48316C312.684086 167.01419 300.59688 206.55943 274.014586 233c7.732152-20.72295 9.320025-43.966053 3.163898-66.957715C261.44032 107.264 201.04931 72.3872 142.291387 88.142772c-16.06445 4.307583-30.34366 11.95386-42.291387 21.992444l.000013-.00001z" />
      <path class="palette-1" fill="url(#d)" d="M110.112613 205.999987c-27.78301-13.090493-49.832804-37.861473-58.402476-69.84243-15.45716-57.684214 18.794565-116.981183 76.50337-132.44349C167.028307-6.68584 206.568702 5.39335 233.00252 31.9695c-20.720147-7.727892-43.96145-9.31129-66.9528-3.151063-58.777484 15.748644-93.6635 76.143705-77.920096 134.896144 4.304256 16.06296 11.94733 30.34011 21.983 42.28542l-.00001-.00001z" />
    </g>
    <path class="palette-2" d="M625.492188 178.3125c-4.312522 9.328172-10.828082 13.992188-19.546876 13.992188-3.656268 0-6.79686-.77343-9.421874-2.320313-2.67189-1.312507-4.828117-3.023427-6.46875-5.132813-2.015636-2.203136-3.35156-5.08592-4.007813-8.648437-.750004-3.562518-1.125-10.382762-1.125-20.460938 0-10.078175.374996-16.945294 1.125-20.601562.656253-3.468767 1.992177-6.304676 4.007813-8.507813 1.640633-2.109385 3.79686-3.86718 6.46875-5.273437 2.625013-1.359382 5.765606-2.085937 9.421874-2.179688 4.968775.09375 9.187483 1.523424 12.65625 4.289063 3.328142 2.906264 5.624994 6.421854 6.890626 10.546875h16.453124c-1.640633-8.578168-5.578093-15.773408-11.8125-21.585938-6.234406-5.765653-14.296825-8.695312-24.1875-8.789062-8.06254.09375-14.789035 2.015606-20.179687 5.765625-5.484402 3.703143-9.468738 7.92185-11.953125 12.65625-1.546883 2.484387-2.69531 5.742167-3.445312 9.773438-.70313 4.03127-1.054688 11.99994-1.054688 23.90625 0 11.718808.35156 19.640604 1.054688 23.765625.375 2.203136.843747 4.031242 1.40625 5.484375.609378 1.406256 1.289058 2.882804 2.039062 4.429687 2.484387 4.7344 6.468723 8.906232 11.953125 12.515625 5.390652 3.75002 12.117147 5.71875 20.179687 5.90625 8.906295 0 16.617155-2.531225 23.132813-7.59375 6.328157-5.1094 10.617176-12.421827 12.867187-21.9375h-16.453124zm25.523437-6.046875c.09375 10.781304 3.656215 19.335906 10.6875 25.664063 6.89066 6.515657 15.4687 9.820312 25.734375 9.914062 10.453177-.09375 19.101528-3.398405 25.945312-9.914063 6.79691-6.328156 10.289062-14.882758 10.476563-25.664062v-67.78125h-15.539063v66.09375c-.09375 6.98441-2.06248 12.30467-5.90625 15.960938-3.93752 3.84377-8.929657 5.765625-14.976562 5.765625-6.046905 0-10.992168-1.921856-14.835938-5.765625-3.93752-3.65627-5.953124-8.976528-6.046874-15.960938v-66.09375h-15.539063v67.78125zm108.140625-53.929688v31.078125h23.484375c5.81253-.09375 10.17186-1.781233 13.078125-5.0625 2.85939-3.04689 4.289062-6.796852 4.289062-11.25-.09375-5.343776-1.80467-9.210925-5.132812-11.601562-2.625013-2.109385-6.42185-3.164063-11.390625-3.164063H759.15625zM743.617188 207V104.484375H783.625c8.531293 0 15.49216 2.249977 20.882812 6.75 6.515658 5.1094 9.914062 12.39839 10.195313 21.867188-.1875 13.921944-6.79681 23.3906-19.828125 28.40625L818.640625 207h-18.492187l-21.164063-43.804688H759.15625V207h-15.539062zm103.359374-88.664063v31.078125h23.484376c5.81253-.09375 10.17186-1.781233 13.078124-5.0625 2.85939-3.04689 4.289063-6.796852 4.289063-11.25-.09375-5.343776-1.80467-9.210925-5.132813-11.601562-2.625013-2.109385-6.42185-3.164063-11.390624-3.164063h-24.328126zM831.4375 207V104.484375h40.007812c8.531293 0 15.49216 2.249977 20.882813 6.75 6.515658 5.1094 9.91406 12.39839 10.195313 21.867188-.1875 13.921944-6.79681 23.3906-19.828126 28.40625L906.460938 207H887.96875l-21.164062-43.804688h-19.828126V207H831.4375zm87.820312 0h65.460938v-14.695313h-49.921875v-30.09375h42.609375v-13.78125h-42.609375v-29.25h49.921875v-14.695312h-65.460938V207zm80.085938 0h15.539062v-72.84375h.28125L1061.5 207h14.695312V104.484375h-15.539062v72.84375h-.28125l-46.40625-72.84375h-14.625V207zm115.875 0h15.609375v-88.664063h28.054687v-13.851562h-71.71875v13.851563h28.054688V207zm55.898438-24.890625l-10.195313 11.671875c10.92193 9.375047 23.976487 14.0625 39.164063 14.0625 23.484492-.28125 35.484372-10.218652 36-29.8125 0-7.26566-2.273415-13.640598-6.820313-19.125-4.593773-5.578153-11.695264-9.02343-21.304687-10.335938-4.875025-.609378-8.718736-1.148435-11.53125-1.617187-5.062526-.937505-8.742177-2.624988-11.039063-5.0625-2.296886-2.390637-3.445313-5.062485-3.445313-8.015625.09375-4.9219 1.80467-8.624988 5.132813-11.109375 3.187516-2.390637 7.17185-3.585938 11.953125-3.585938 9.23442.1875 17.695274 2.812475 25.382812 7.875l8.648438-12.796875c-9.421922-6.796908-20.50775-10.335936-33.257812-10.617187-10.593803.09375-18.77341 2.859348-24.539063 8.296875-5.953155 5.484402-8.929687 12.70308-8.929687 21.65625 0 7.453162 2.367163 13.781224 7.101562 18.984375 4.593773 5.062525 11.29683 8.320305 20.109375 9.773438 4.9219.703128 9.445292 1.335934 13.570313 1.898437 9.000045 1.546883 13.453125 6.140587 13.359374 13.78125-.1875 9.328172-6.937433 14.085937-20.25 14.273438-11.250056-.09375-20.953084-3.492154-29.109374-10.195313z"/>
    <path class="palette-3" d="M307.320313 200.24161c3.656268-.656254 6.281242-1.335935 7.875-2.039063 2.578137-1.17188 4.9453-3.140612 7.101562-5.90625l25.171875-31.851563-28.476563-41.835937c-2.109385-3.04689-3.96093-5.167963-5.554687-6.363282-1.593758-1.195318-3.585926-1.86328-5.976563-2.003906v-3.65625H357.3125v3.65625c-4.640648.23437-7.72265.60937-9.246094 1.125-1.523445.51562-2.285156 1.73436-2.285156 3.65625 0 .84375.187498 1.66405.5625 2.46093.375002.79688.91406 1.73437 1.617188 2.8125l13.992187 21.65625c7.87504-11.01568 12.609367-17.78905 14.203125-20.320315 1.593758-2.53126 2.390625-4.640616 2.390625-6.328125 0-2.06251-1.171863-3.468746-3.515625-4.21875-1.359382-.421877-3.703108-.703124-7.03125-.84375v-3.65625h36v3.65625c-6.375032.609378-11.414044 2.753888-15.117188 6.433594-3.703143 3.679705-11.507752 13.886634-23.414062 30.621093l26.15625 40.64063c3.421892 5.2969 5.941398 8.578117 7.558594 9.84375 1.617195 1.26563 3.761705 2.085934 6.433593 2.460936v3.65625h-49.007812v-3.65625c4.21877-.187502 7.007806-.46875 8.367188-.84375 2.109385-.60938 3.164062-1.828117 3.164062-3.65625 0-.70313-.222654-1.675776-.66797-2.91797-.445313-1.242193-1.230462-2.753897-2.355467-4.535156l-14.484375-23.34375-5.484375 7.3125c-4.64065 6.23441-7.781242 10.59374-9.421875 13.07813-2.718764 4.171895-4.078125 7.12499-4.078125 8.859374 0 2.531266 1.664045 4.26562 4.992187 5.203128 1.87501.5625 4.10155.84375 6.679688.84375v3.65625h-36v-3.65625zm103.992187 0c4.078145-.09375 7.007804-.585934 8.789062-1.476563 2.906265-1.500008 4.359376-4.382792 4.359376-8.648438v-69.67969c0-4.26565-1.3828-7.125-4.148438-8.57813-1.687508-.89063-4.687478-1.42969-9-1.61719v-3.65625h50.34375v3.65625c-4.500023.1875-7.593742.70312-9.28125 1.546873-2.812514 1.453132-4.21875 4.335916-4.21875 8.64844V190.1166c0 4.03127 1.12499 6.726556 3.375 8.085938 2.25001 1.35938 5.624977 2.03906 10.125 2.03906v3.65625H411.3125v-3.65625zm104.34375-93.65625v3.65625c-5.156276.28125-8.496086.71484-10.01953 1.30078-1.523446.58594-2.285158 2.05077-2.285158 4.394532 0 .750003.058594 1.441403.175782 2.074218.117188.632816.339842 1.324215.667968 2.07422l21.796876 53.15625h.84375l18.84375-48.65625c.421877-1.07813.796873-2.179683 1.125-3.304688.562502-1.828134.84375-3.304682.84375-4.429688 0-2.718763-.808586-4.417965-2.425782-5.097656-1.617195-.67969-4.91013-1.183592-9.878906-1.51172v-3.65625H566v3.515626c-3.515643.375002-6.152335 1.394523-7.910156 3.058594-1.757822 1.66407-3.457023 4.58201-5.097656 8.753906l-32.835938 84.65625h-3.796875l-37.054687-86.273437c-1.500008-3.468768-3.03515-5.964836-4.60547-7.488282-1.57032-1.523445-4.019514-2.42578-7.347656-2.70703v-3.515626h48.304688z"/>
  </g>
</svg>
